# xmcd CD database file
#
# Track frame offsets:
#	150
#	29676
#	62908
#	89813
#	119056
#	156089
#	186791
#	210504
#	238048
#
# Disc length: 3659 seconds
#
# Revision: 0
# Processed by: cddbd v1.5.2PL0 Copyright (c) Steve Scherf et al.
# Submitted via: CDex 1.51
#
DISCID=850e4909
DTITLE=Llewellyn - Music For Lovers
DYEAR=2001
DGENRE=New Age
TTITLE0=Alpha Love
TTITLE1=Moon
TTITLE2=Sun
TTITLE3=Lancelot - The Forbidden Love
TTITLE4=Where Do We Go
TTITLE5=Wishing You Love
TTITLE6=Sacred Panpipes
TTITLE7=Waters Of Belief
TTITLE8=In The Mists Of Sleep
EXTD=YEAR: 2001
EXTT0=
EXTT1=
EXTT2=
EXTT3=
EXTT4=
EXTT5=
EXTT6=
EXTT7=
EXTT8=
PLAYORDER=
